<?xml version="1.0" standalone="no"?>
<!DOCTYPE svg PUBLIC "-//W3C//DTD SVG 20010904//EN"
 "http://www.w3.org/TR/2001/REC-SVG-20010904/DTD/svg10.dtd">
<svg version="1.0" xmlns="http://www.w3.org/2000/svg"
 width="1080.000000pt" height="518.000000pt" viewBox="0 0 1080.000000 518.000000"
 preserveAspectRatio="xMidYMid meet">

<g transform="translate(0.000000,518.000000) scale(0.100000,-0.100000)"
fill="#000000" stroke="none">
<path d="M2755 3738 c-3 -7 -4 -326 -3 -708 l3 -695 140 0 140 0 0 705 0 705
-138 3 c-104 2 -139 -1 -142 -10z"/>
<path d="M1355 3668 c-3 -7 -4 -310 -3 -673 l3 -660 148 -3 147 -3 1 78 c5
213 8 283 13 292 4 6 88 10 229 9 235 -2 261 2 387 60 104 47 194 155 232 277
52 172 -6 391 -129 492 -69 56 -89 67 -188 104 l-90 33 -373 4 c-302 3 -373 1
-377 -10z m699 -251 c119 -40 166 -108 166 -242 0 -98 -37 -157 -125 -203 -48
-25 -58 -26 -242 -30 l-193 -4 0 244 c0 135 3 248 7 251 3 4 77 7 163 7 136 0
165 -3 224 -23z"/>
<path d="M7843 3612 l-133 -3 0 -113 c0 -63 -3 -121 -6 -130 -5 -13 -22 -16
-85 -16 l-79 0 0 -110 0 -109 83 -3 82 -3 5 -275 c5 -260 6 -278 29 -335 27
-68 87 -132 155 -164 24 -11 82 -26 127 -32 71 -10 96 -10 163 4 86 18 126 38
126 65 -1 9 -11 53 -24 97 -26 87 -36 96 -85 71 -60 -32 -137 -14 -180 40 -20
25 -21 38 -21 280 l0 254 130 0 130 0 0 110 0 109 -127 3 -128 3 -5 129 c-3
75 -9 130 -15 130 -5 1 -70 0 -142 -2z"/>
<path d="M5150 3375 c-83 -14 -160 -48 -213 -95 -19 -16 -37 -30 -40 -30 -3 0
-7 26 -9 58 l-3 57 -135 0 -135 0 0 -515 0 -515 140 0 140 0 5 310 c5 336 7
344 63 403 103 108 283 112 362 8 48 -63 55 -120 55 -436 l0 -290 141 0 140 0
-3 388 -3 387 -40 74 c-62 115 -150 175 -285 197 -47 8 -89 13 -95 13 -5 -1
-44 -7 -85 -14z"/>
<path d="M6295 3371 c-112 -25 -206 -77 -282 -159 -35 -36 -66 -75 -69 -86 -4
-12 -12 -28 -19 -36 -44 -52 -63 -288 -33 -400 51 -183 214 -326 417 -364 103
-20 149 -20 244 -2 137 26 266 110 325 210 24 40 22 43 -53 78 -28 13 -72 37
-99 53 -40 23 -51 26 -54 15 -7 -23 -90 -100 -120 -111 -34 -14 -179 -14 -212
-1 -53 21 -110 73 -137 124 -25 48 -28 63 -28 158 0 96 2 109 27 152 33 56 98
113 146 129 20 7 69 9 116 7 71 -4 87 -9 128 -37 26 -18 55 -45 65 -62 9 -16
21 -29 26 -29 5 0 35 15 66 34 31 19 73 41 94 50 20 8 40 22 43 30 16 41 -83
154 -178 202 -125 63 -261 78 -413 45z"/>
<path d="M8844 3374 c-141 -25 -282 -118 -362 -239 -17 -26 -44 -86 -58 -133
-23 -74 -26 -96 -21 -176 8 -147 48 -242 143 -345 166 -179 456 -223 696 -106
86 42 195 139 226 202 87 173 89 364 5 527 -21 41 -72 106 -103 131 -14 11
-32 27 -40 35 -37 37 -162 91 -242 105 -97 17 -146 17 -244 -1z m235 -246 c41
-15 101 -68 120 -107 10 -20 24 -60 30 -89 40 -191 -45 -346 -204 -372 -136
-22 -233 18 -290 121 -28 51 -30 61 -30 164 0 103 2 113 29 163 39 69 100 118
162 131 51 10 142 5 183 -11z"/>
<path d="M7085 3358 c-3 -7 -4 -240 -3 -518 l3 -505 140 0 140 0 0 515 0 515
-138 3 c-104 2 -139 -1 -142 -10z"/>
<path d="M8878 1114 c-3 -195 2 -245 20 -217 10 16 3 423 -8 423 -5 0 -10 -89
-12 -206z"/>
<path d="M6810 1243 c0 -85 -10 -105 -39 -79 -14 13 -36 18 -78 19 -97 1 -138
-42 -138 -143 1 -69 20 -102 75 -130 50 -26 73 -25 122 2 38 22 40 22 53 4 29
-39 35 -7 35 195 0 170 -2 199 -15 199 -12 0 -15 -14 -15 -67z m-39 -112 c25
-26 29 -36 29 -88 -1 -65 -10 -82 -59 -107 -44 -23 -95 -14 -133 24 -23 24
-28 37 -28 80 0 46 4 56 34 86 29 29 41 34 81 34 38 0 52 -5 76 -29z"/>
<path d="M8384 1299 c-3 -6 0 -17 8 -25 13 -13 16 -13 27 0 7 8 10 20 6 26 -8
13 -32 13 -41 -1z"/>
<path d="M1855 1273 c-76 -40 -107 -91 -108 -177 -1 -85 23 -130 87 -167 28
-16 65 -32 83 -35 46 -9 168 34 150 52 -4 5 -33 -1 -63 -11 -48 -16 -61 -17
-102 -6 -82 21 -132 86 -132 169 0 59 43 125 97 147 45 19 120 19 153 0 27
-16 60 -20 60 -7 0 4 -21 17 -47 30 -57 26 -134 29 -178 5z"/>
<path d="M9021 1168 c1 -153 12 -204 22 -103 4 39 7 105 7 148 0 62 -3 77 -15
77 -13 0 -15 -20 -14 -122z"/>
<path d="M4388 1218 c-2 -26 -8 -34 -26 -36 -27 -4 -24 -27 4 -27 17 0 19 -9
22 -111 2 -95 6 -114 22 -129 22 -20 85 -24 102 -7 9 9 3 12 -29 12 -22 0 -46
6 -52 14 -8 9 -11 50 -9 117 l3 104 38 5 c42 6 51 26 10 23 -34 -3 -53 13 -53
43 0 37 -28 30 -32 -8z"/>
<path d="M4232 1198 c2 -13 10 -23 18 -23 8 0 16 10 18 23 3 17 -2 22 -18 22
-16 0 -21 -5 -18 -22z"/>
<path d="M2210 1182 c-36 -10 -66 -29 -58 -37 4 -4 21 -2 39 4 39 14 94 14
118 1 10 -5 24 -23 31 -40 17 -42 0 -62 -54 -60 -23 1 -55 1 -73 1 -76 -2 -99
-95 -34 -138 39 -27 74 -29 115 -8 36 19 56 19 56 0 0 -8 5 -15 10 -15 6 0 10
46 10 119 0 110 -2 122 -22 145 -25 27 -91 40 -138 28z m136 -167 c27 -70 -93
-126 -160 -74 -31 25 -33 42 -6 69 16 16 33 20 90 20 54 0 72 -4 76 -15z"/>
<path d="M2505 1178 c-10 -25 0 -278 10 -281 6 -1 12 39 15 100 6 112 15 132
80 162 l35 15 -27 4 c-15 2 -38 -4 -50 -12 -28 -20 -38 -20 -38 -2 0 20 -19
30 -25 14z"/>
<path d="M2760 1183 c-31 -6 -50 -21 -50 -39 0 -12 5 -12 30 1 16 8 49 15 74
15 36 0 48 -5 65 -26 23 -30 27 -63 9 -69 -7 -2 -44 -7 -81 -10 -81 -8 -107
-27 -107 -79 0 -26 7 -41 31 -60 36 -30 74 -33 125 -9 34 17 36 17 45 0 21
-37 29 -14 29 81 0 128 -11 165 -54 186 -33 16 -65 18 -116 9z m138 -189 c4
-43 -35 -74 -92 -74 -73 0 -104 39 -70 88 14 21 23 23 87 20 l72 -3 3 -31z"/>
<path d="M3127 1182 c-39 -5 -97 -67 -99 -106 -4 -90 6 -121 49 -151 28 -18
51 -25 86 -25 48 0 107 22 107 40 0 14 -21 12 -50 -5 -36 -20 -77 -18 -116 6
-44 27 -54 47 -54 104 0 40 5 52 35 82 34 34 38 35 91 31 39 -3 59 -10 66 -21
11 -21 28 -22 28 -2 0 31 -76 56 -143 47z"/>
<path d="M3410 1181 c-36 -9 -66 -28 -57 -37 4 -4 18 -2 32 4 42 19 109 15
139 -9 28 -22 37 -78 14 -80 -13 -2 -46 -4 -111 -7 -116 -6 -110 -152 6 -152
22 0 56 5 74 12 28 10 36 10 42 -1 20 -31 31 3 31 95 0 122 -14 159 -67 173
-41 12 -64 12 -103 2z m140 -186 c0 -49 -45 -78 -114 -72 -52 5 -66 17 -66 59
0 37 23 47 108 48 l72 0 0 -35z"/>
<path d="M4606 1183 c-12 -13 -6 -183 8 -218 28 -67 112 -94 171 -55 37 25 42
25 50 0 15 -49 25 1 25 131 0 117 -2 139 -15 139 -12 0 -15 -18 -15 -104 l0
-105 -33 -25 c-37 -28 -93 -35 -119 -13 -39 31 -48 60 -48 154 0 84 -7 113
-24 96z"/>
<path d="M5180 1183 c-29 -6 -62 -32 -55 -44 3 -4 18 -1 33 7 15 7 48 14 73
14 53 0 79 -21 82 -66 l2 -29 -80 -8 c-99 -10 -117 -24 -113 -86 3 -40 7 -46
42 -64 40 -21 47 -20 139 10 11 3 17 0 17 -11 0 -21 16 -21 24 0 8 20 8 172 0
210 -11 53 -85 83 -164 67z m130 -188 c0 -48 -31 -75 -89 -75 -71 0 -104 48
-64 92 13 14 31 18 85 18 l68 0 0 -35z"/>
<path d="M5530 1183 c-30 -6 -67 -38 -86 -75 -60 -114 73 -239 191 -178 21 11
43 20 47 20 12 0 10 -68 -2 -91 -24 -44 -101 -61 -154 -34 -33 17 -66 20 -66
4 0 -18 68 -39 130 -39 55 0 64 3 98 34 l37 34 3 161 c3 139 1 161 -12 161 -8
0 -19 -8 -25 -17 -9 -16 -11 -16 -28 -1 -19 17 -92 29 -133 21z m131 -52 c25
-25 29 -37 29 -83 0 -73 -27 -99 -104 -106 -51 -4 -58 -2 -85 26 -53 52 -53
106 -2 161 25 27 36 31 81 31 44 0 56 -4 81 -29z"/>
<path d="M5916 1180 c-66 -20 -103 -88 -91 -167 12 -82 100 -136 184 -113 40
10 69 35 57 47 -4 4 -22 -1 -41 -11 -39 -21 -91 -17 -132 9 -25 17 -47 60 -37
76 3 5 59 9 125 9 l119 0 0 28 c0 44 -52 109 -97 121 -43 12 -48 12 -87 1z
m121 -55 c59 -59 46 -70 -77 -70 -122 0 -133 9 -77 69 29 30 41 36 77 36 35 0
48 -6 77 -35z"/>
<path d="M6197 1184 c-11 -11 -8 -282 2 -289 17 -10 23 14 30 115 5 85 9 102
30 124 31 33 96 36 132 7 22 -18 24 -29 29 -133 4 -92 8 -113 20 -113 12 0 16
18 18 85 6 150 -27 204 -123 204 -39 0 -59 -5 -75 -19 -21 -19 -22 -19 -39 3
-9 13 -20 20 -24 16z"/>
<path d="M7004 1181 c-41 -10 -54 -19 -54 -37 0 -17 8 -17 40 1 52 30 124 13
150 -35 19 -36 3 -47 -75 -52 -99 -7 -125 -24 -125 -82 0 -50 19 -68 83 -80
30 -6 48 -2 79 14 l40 21 5 -21 c13 -51 23 -10 23 99 0 110 -2 122 -22 146
-26 28 -90 40 -144 26z m144 -182 c5 -39 -47 -79 -102 -79 -54 0 -86 22 -86
61 0 39 25 49 115 46 67 -2 70 -3 73 -28z"/>
<path d="M7477 1180 c-44 -14 -57 -29 -57 -71 0 -49 34 -74 115 -86 60 -8 60
-8 63 -44 3 -32 0 -38 -28 -49 -28 -12 -62 -10 -132 6 -43 10 -34 -12 12 -30
50 -20 81 -20 127 -1 45 19 53 30 53 72 0 40 -22 55 -103 72 -67 15 -96 45
-77 80 14 26 49 35 111 28 43 -5 72 4 52 16 -18 11 -110 15 -136 7z"/>
<path d="M7787 1182 c-99 -25 -131 -181 -51 -251 63 -56 142 -50 205 15 31 32
34 41 34 92 0 59 -19 97 -64 128 -23 17 -87 25 -124 16z m123 -52 c51 -55 44
-155 -13 -190 -93 -57 -193 17 -172 127 3 20 19 49 35 65 23 23 37 28 75 28
39 0 52 -5 75 -30z"/>
<path d="M8140 1180 c-96 -23 -133 -168 -61 -241 51 -50 139 -57 196 -15 31
22 9 31 -30 13 -57 -27 -98 -22 -139 17 -32 30 -36 39 -36 86 0 46 4 56 34 86
29 29 41 34 79 34 30 0 53 -7 71 -21 14 -11 31 -17 37 -14 17 11 -19 44 -60
55 -40 11 -43 11 -91 0z"/>
<path d="M8568 1183 c-28 -5 -55 -29 -44 -40 3 -4 21 -1 39 5 19 7 52 12 74
12 33 0 46 -6 62 -26 45 -57 22 -84 -71 -84 -60 0 -72 -3 -93 -25 -40 -40 -29
-92 25 -120 39 -20 68 -19 115 5 22 11 40 20 41 20 1 0 4 -9 7 -20 3 -11 10
-20 17 -20 8 0 11 34 8 125 -3 110 -5 127 -24 145 -21 22 -99 33 -156 23z
m152 -183 c0 -47 -41 -80 -98 -80 -72 0 -106 47 -65 92 13 14 31 18 90 18 l73
0 0 -30z"/>
<path d="M3693 1158 c-56 -62 -27 -112 77 -130 97 -16 125 -60 59 -93 -35 -19
-72 -19 -124 -1 -26 9 -41 11 -44 4 -5 -14 16 -26 70 -37 88 -19 167 22 155
81 -7 38 -29 54 -80 63 -65 10 -106 34 -106 61 0 40 40 58 111 50 48 -6 60 -4
57 6 -3 9 -29 14 -79 16 -67 2 -77 0 -96 -20z"/>
<path d="M8392 1038 c2 -87 7 -143 13 -143 6 0 11 56 13 143 2 123 0 142 -13
142 -13 0 -15 -19 -13 -142z"/>
<path d="M4240 945 c0 -97 4 -155 10 -155 6 0 10 58 10 155 0 97 -4 155 -10
155 -6 0 -10 -58 -10 -155z"/>
<path d="M3940 928 c0 -7 4 -19 9 -27 5 -7 5 -28 1 -47 -11 -49 5 -51 24 -4
24 61 21 90 -9 90 -14 0 -25 -6 -25 -12z"/>
<path d="M9020 921 c0 -24 25 -34 40 -16 15 18 5 35 -21 35 -12 0 -19 -7 -19
-19z"/>
</g>
</svg>
